<svg width="205" height="83" viewBox="0 0 205 83" fill="none" xmlns="http://www.w3.org/2000/svg">
<path d="M89.1847 47.9145C87.9708 47.8362 87.3834 47.8362 87.1093 46.1524V33.661C87.1093 25.8294 83.076 23.5974 77.3981 23.5974C72.2685 23.5974 68.3135 26.3385 66.708 31.1549L70.6238 31.5073C71.7594 26.3385 73.8739 24.1456 77.2415 24.1456C80.5308 24.1456 82.567 25.6336 82.567 31.1157V36.4804C80.5699 35.5797 78.0638 35.0707 75.7927 35.0707C70.3497 35.0707 65.4941 37.1461 65.4941 42.5107C65.4941 46.8964 69.3316 49.1284 73.9131 49.1284C78.1421 49.1284 81.2356 46.9747 82.7236 43.6463V48.541H90.1636V47.9536L89.1847 47.9145ZM82.6062 40.9444C82.6062 45.565 78.9645 48.032 76.1843 48.032C72.4643 48.032 70.1148 45.7216 70.1148 42.0016C70.1148 38.0075 72.9341 35.6581 77.0066 35.6581C78.612 35.6581 80.6874 35.9713 82.6453 36.9503V40.9444H82.6062Z" fill="black"/>
<path d="M140.561 49.1674C134.021 49.1674 128.461 44.6251 128.461 36.5194C128.461 28.8445 133.395 23.6365 140.757 23.6365C147.57 23.6365 151.76 28.5312 151.76 35.0314V35.3055H133.199C133.434 44.5076 137.232 47.9927 142.675 47.9927C147.218 47.9927 150.546 44.8209 151.447 39.8087L151.877 39.9262C150.663 46.3089 146.434 49.1674 140.561 49.1674ZM133.199 34.679H147.531C147.218 28.7662 145.181 24.1847 140.561 24.1847C135.588 24.1847 133.199 28.962 133.199 34.4049V34.679V34.679Z" fill="black"/>
<path d="M49.7141 29.5494C58.1722 28.2963 61.3832 24.9679 61.3832 20.4256C61.3832 14.082 55.6269 12.2024 45.8766 12.2024H33.1895V12.7898L34.1684 12.8289C35.3823 12.9072 35.9697 12.9072 36.2438 14.591V46.1523C35.9697 47.8361 35.3823 47.8361 34.1684 47.9144L33.1895 47.9536V48.5409H45.2109C58.7596 48.5409 63.3019 45.4866 63.3019 38.5948C63.3019 32.4079 56.2926 29.6277 49.7141 29.5494ZM40.9036 12.7898H45.1718C52.1027 12.7898 56.5667 14.4736 56.5667 20.9738C56.5667 27.3565 51.7895 29.3927 44.7019 29.3927H40.8644V12.7898H40.9036ZM45.2893 47.9927H40.9036V29.8626H45.485C53.16 29.8626 58.6029 32.7603 58.6029 39.143C58.5638 46.3089 52.6901 47.9927 45.2893 47.9927Z" fill="black"/>
<path d="M116.831 47.9144C115.656 47.8361 115.029 47.8361 114.755 46.1523V12.2024H107.198V12.7898L108.216 12.8289C109.391 12.9072 110.017 12.9072 110.291 14.5519V30.8024C108.881 25.9077 105.631 23.5973 101.559 23.5973C94.9804 23.5973 90.2031 28.0222 90.2031 36.7936C90.2031 44.2727 94.7454 49.1283 101.324 49.1283C105.24 49.1283 108.803 47.0921 110.291 42.354V48.5409H117.849V47.9536L116.831 47.9144ZM103.086 48.2277C98.0739 48.2277 94.9804 43.7637 94.9804 36.0887C94.9804 27.983 98.8179 24.6155 102.929 24.6155C107.354 24.6155 110.487 29.3536 110.487 36.3628C110.526 44.586 106.649 48.2277 103.086 48.2277Z" fill="black"/>
<path d="M128.462 47.9536V48.5409H117.811V47.9536L118.829 47.9144C120.003 47.8361 120.63 47.8361 120.904 46.1523V14.591C120.63 12.9464 120.003 12.9072 118.829 12.8289L117.811 12.7898V12.2024H125.368V46.1523C125.642 47.7969 126.269 47.8361 127.443 47.9144L128.462 47.9536Z" fill="black"/>
<path d="M171.809 25.0462L169.812 28.6487C168.481 27.239 166.836 26.4559 164.917 26.4559C161.197 26.4559 159.944 29.9409 159.944 33.2693V46.2306C160.218 47.8361 160.845 47.8361 162.02 47.9144L162.999 47.9536V48.5409H152.387V47.9536L153.366 47.9144C154.58 47.8361 155.167 47.8361 155.441 46.1523V26.6125C155.167 24.9679 154.58 24.9287 153.366 24.8504L152.387 24.8112V24.2239H159.748V31.6639C160.492 26.1034 163.233 23.6365 167.267 23.6365C168.872 23.5973 170.634 24.1455 171.809 25.0462Z" fill="black"/>
<path d="M76.4613 70.3128C76.1872 70.3128 75.8739 70.2736 75.5215 70.1562L75.639 69.5688C75.9131 69.6471 76.148 69.6863 76.383 69.6863C76.6962 69.6863 76.892 69.608 76.9703 69.4122C77.0878 69.2555 77.127 68.9423 77.127 68.5507V63.2252H77.871V68.5507C77.871 69.1772 77.7535 69.608 77.5185 69.8821C77.2836 70.1953 76.9312 70.3128 76.4613 70.3128Z" fill="black"/>
<path d="M81.5137 69.0206V63.2252H84.9987V63.8517H82.2968V65.653H84.8421V66.2795H82.2968V68.3157H85.1162V68.9423H81.5137V69.0206Z" fill="black"/>
<path d="M89.2655 69.0206L87.6992 63.2252H88.5215L89.5396 67.2193L89.7354 68.1591C89.9312 67.4934 90.2053 66.5536 90.5577 65.3397C90.9102 64.1258 91.1451 63.421 91.1843 63.2644H91.9283C91.9674 63.421 92.2024 64.1258 92.5548 65.3397C92.9072 66.5536 93.2205 67.4934 93.3771 68.1591C93.5337 67.4934 93.7295 66.5536 94.0428 65.3397C94.3561 64.1258 94.5127 63.421 94.5519 63.2252H95.335L93.8079 69.0206H92.9072L91.4975 64.2433L90.0879 69.0206H89.2655Z" fill="black"/>
<path d="M98.3887 69.0206V63.2252H101.874V63.8517H99.1718V65.653H101.717V66.2795H99.1718V68.3157H101.991V68.9423H98.3887V69.0206Z" fill="black"/>
<path d="M105.203 69.0206V63.2252H105.947V68.3549H108.649V68.9814H105.203V69.0206Z" fill="black"/>
<path d="M111.664 69.0206V63.2252H115.149V63.8517H112.447V65.653H114.992V66.2795H112.447V68.3157H115.267V68.9423H111.664V69.0206Z" fill="black"/>
<path d="M118.479 69.0206V63.2252H120.319C120.554 63.2252 120.789 63.2252 120.945 63.2644C121.141 63.3035 121.298 63.3427 121.494 63.421C121.65 63.4993 121.807 63.5776 121.924 63.6951C122.042 63.8126 122.12 63.9692 122.199 64.1259C122.277 64.3216 122.316 64.5174 122.316 64.7524C122.316 65.1048 122.238 65.4181 122.042 65.653C121.846 65.888 121.572 66.0446 121.18 66.1229C121.415 66.2012 121.572 66.3187 121.689 66.4753C121.807 66.632 121.924 66.9061 122.081 67.2193L122.747 68.9814H121.924L121.298 67.2976C121.22 67.0627 121.141 66.8669 121.063 66.7494C120.985 66.632 120.906 66.5536 120.75 66.5145C120.632 66.4753 120.476 66.4362 120.241 66.4362H119.223V69.0206H118.479V69.0206ZM119.223 65.8096H120.319C120.711 65.8096 120.985 65.7313 121.22 65.5747C121.415 65.4181 121.533 65.1831 121.533 64.7915C121.533 64.6349 121.533 64.5174 121.494 64.4C121.455 64.2825 121.415 64.2042 121.376 64.1259C121.337 64.0475 121.259 64.0084 121.141 63.9692C121.063 63.9301 120.945 63.8909 120.828 63.8909C120.711 63.8909 120.593 63.8517 120.397 63.8517H119.301V65.8096H119.223Z" fill="black"/>
<path d="M127.524 68.4724C127.681 68.4724 127.837 68.4724 127.955 68.4332C128.072 68.3941 128.19 68.3549 128.307 68.3157C128.386 68.2766 128.464 68.1983 128.542 68.12C128.621 68.0416 128.66 67.9633 128.699 67.8459C128.738 67.7284 128.738 67.6109 128.738 67.4934C128.738 67.3368 128.738 67.2585 128.699 67.141C128.66 67.0627 128.621 66.9452 128.542 66.8669C128.464 66.7886 128.347 66.7103 128.19 66.632C128.033 66.5536 127.877 66.4753 127.642 66.4362C127.603 66.4362 127.563 66.397 127.485 66.397C127.407 66.3578 127.328 66.3579 127.289 66.3579C126.741 66.2012 126.349 66.0054 126.075 65.7705C125.84 65.5355 125.684 65.1831 125.684 64.7132C125.684 64.4 125.762 64.1259 125.919 63.8909C126.075 63.656 126.31 63.4993 126.584 63.3818C126.859 63.2644 127.211 63.2252 127.563 63.2252C128.347 63.2252 128.934 63.421 129.365 63.8126L128.973 64.3216C128.856 64.2042 128.66 64.0867 128.425 63.9692C128.19 63.8517 127.955 63.8126 127.642 63.8126C127.289 63.8126 126.976 63.8909 126.78 64.0475C126.545 64.2042 126.467 64.4 126.467 64.6741C126.467 64.8699 126.506 65.0265 126.545 65.144C126.584 65.2614 126.702 65.3397 126.819 65.4181C126.937 65.4964 127.172 65.5747 127.446 65.653C127.446 65.653 127.485 65.653 127.603 65.6922C127.681 65.7313 127.759 65.7313 127.798 65.7313C128.151 65.8488 128.425 65.9271 128.621 66.0446C128.856 66.1621 129.012 66.2795 129.13 66.4362C129.247 66.5928 129.365 66.7494 129.404 66.9061C129.443 67.0627 129.482 67.2976 129.482 67.5326C129.482 67.8067 129.443 68.0416 129.325 68.2374C129.208 68.4332 129.091 68.629 128.895 68.7465C128.699 68.864 128.503 68.9814 128.268 69.0597C128.033 69.1381 127.798 69.1772 127.524 69.1772C127.093 69.1772 126.702 69.0989 126.349 68.9814C125.997 68.8248 125.762 68.7073 125.605 68.5507L125.958 68.0025C126.115 68.12 126.349 68.2766 126.624 68.3941C126.937 68.4332 127.211 68.4724 127.524 68.4724Z" fill="black"/>
</svg>
